<?xml version="1.0" encoding="UTF-8" standalone="no"?>
<!-- Created with Inkscape (http://www.inkscape.org/) -->

<svg
   xmlns:dc="http://purl.org/dc/elements/1.1/"
   xmlns:cc="http://creativecommons.org/ns#"
   xmlns:rdf="http://www.w3.org/1999/02/22-rdf-syntax-ns#"
   xmlns:svg="http://www.w3.org/2000/svg"
   xmlns="http://www.w3.org/2000/svg"
   xmlns:xlink="http://www.w3.org/1999/xlink"
   xmlns:sodipodi="http://sodipodi.sourceforge.net/DTD/sodipodi-0.dtd"
   xmlns:inkscape="http://www.inkscape.org/namespaces/inkscape"
   width="178.06491mm"
   height="183.79449mm"
   viewBox="0 0 178.06491 183.7945"
   version="1.1"
   id="svg1896"
   inkscape:version="0.92.3 (d244b95, 2018-08-02)"
   sodipodi:docname="graphics2-cs.svg"
   inkscape:export-filename="/home/radoslav/Work/PutinPropagandaChrome/graphics/v2/graphics-cs.png"
   inkscape:export-xdpi="66.334953"
   inkscape:export-ydpi="66.334953">
  <defs
     id="defs1890">
    <rect
       height="483.89999"
       width="388.39999"
       y="11.4"
       x="222.60001"
       id="SVGID_1_" />
    <path
       d="m 411.8,53.3 c 38.4,0.4 77.1,7.2 107.4,31.3 30.1,23.1 51.7,63.4 52.1,108.2 1.7,44.5 -15.9,88 -46.5,118 -30.3,30.3 -73.6,47.1 -117.7,45.6 C 362.8,356 322.1,335.2 298.3,305.2 273.6,275.1 265.9,236 265.8,197.1 265,158.5 276.6,116 304.2,90 330.9,63 373.6,52.4 411.8,53.3 Z"
       id="SVGID_3_"
       inkscape:connector-curvature="0" />
    <path
       d="m 411.8,53.3 c 38.4,0.4 77.1,7.2 107.4,31.3 30.1,23.1 51.7,63.4 52.1,108.2 1.7,44.5 -15.9,88 -46.5,118 -30.3,30.3 -73.6,47.1 -117.7,45.6 C 362.8,356 322.1,335.2 298.3,305.2 273.6,275.1 265.9,236 265.8,197.1 265,158.5 276.6,116 304.2,90 330.9,63 373.6,52.4 411.8,53.3 Z"
       id="SVGID_5_"
       inkscape:connector-curvature="0" />
    <path
       d="m 411.8,53.3 c 38.4,0.4 77.1,7.2 107.4,31.3 30.1,23.1 51.7,63.4 52.1,108.2 1.7,44.5 -15.9,88 -46.5,118 -30.3,30.3 -73.6,47.1 -117.7,45.6 C 362.8,356 322.1,335.2 298.3,305.2 273.6,275.1 265.9,236 265.8,197.1 265,158.5 276.6,116 304.2,90 330.9,63 373.6,52.4 411.8,53.3 Z"
       id="SVGID_7_"
       inkscape:connector-curvature="0" />
  </defs>
  <sodipodi:namedview
     id="base"
     pagecolor="#ffffff"
     bordercolor="#666666"
     borderopacity="1.0"
     inkscape:pageopacity="0.0"
     inkscape:pageshadow="2"
     inkscape:zoom="1"
     inkscape:cx="302.93509"
     inkscape:cy="326.23272"
     inkscape:document-units="mm"
     inkscape:current-layer="g2536"
     showgrid="false"
     fit-margin-top="0"
     fit-margin-left="0"
     fit-margin-right="0"
     fit-margin-bottom="0"
     inkscape:window-width="1458"
     inkscape:window-height="1180"
     inkscape:window-x="1102"
     inkscape:window-y="27"
     inkscape:window-maximized="0"
     showguides="false" />
  <metadata
     id="metadata1893">
    <rdf:RDF>
      <cc:Work
         rdf:about="">
        <dc:format>image/svg+xml</dc:format>
        <dc:type
           rdf:resource="http://purl.org/dc/dcmitype/StillImage" />
        <dc:title></dc:title>
      </cc:Work>
    </rdf:RDF>
  </metadata>
  <g
     inkscape:label="Layer 1"
     inkscape:groupmode="layer"
     id="layer1"
     transform="translate(-76.871077,-120.06779)">
    <rect
       style="opacity:1;fill:#00aa88;fill-opacity:1;stroke:none;stroke-width:0.62416172;stroke-miterlimit:4;stroke-dasharray:none"
       id="rect4794"
       width="172.08795"
       height="174.73724"
       x="87.328293"
       y="115.48857"
       transform="matrix(0.99857986,0.05327529,-0.03560399,0.99936598,0,0)" />
    <g
       id="Layer_1"
       transform="matrix(0.02984403,0,0,0.02984403,47.377668,159.77474)" />
    <g
       id="g2464"
       transform="matrix(0.1249765,0,0,0.1249765,72.28924,164.19478)">
      <g
         id="g2454">
        <rect
           style="fill:#121212"
           x="246.89999"
           y="24.299999"
           class="st15"
           width="972.20001"
           height="660.70001"
           id="rect2450" />
        <path
           style="fill:#121212"
           inkscape:connector-curvature="0"
           class="st15"
           d="M 1194.9,48.6 V 660.7 H 271.2 V 48.6 h 923.7 M 1223.1,0 H 243 C 231.7,0 222.6,9.1 222.6,20.4 V 709.3 H 1243.4 V 20.4 C 1243.5,9.1 1234.4,0 1223.1,0 Z"
           id="path2452" />
      </g>
      <g
         id="g2458">
        <rect
           style="fill:#ffffff"
           x="253.10001"
           y="49.200001"
           class="st14"
           width="959.79999"
           height="587.90002"
           id="rect2456" />
      </g>
      <circle
         style="fill:#7f7f7f"
         class="st7"
         cx="733.09998"
         cy="24"
         r="6.5999999"
         id="circle2460" />
      <rect
         style="fill:#2d2d2d"
         x="222.60001"
         y="678.59998"
         class="st16"
         width="1020.8"
         height="31.6"
         id="rect2462" />
    </g>
    <g
       id="g2472"
       transform="matrix(0.1249765,0,0,0.1249765,72.28924,164.19478)">
      <g
         id="g2468">
        <path
           style="fill:#d3d3d3"
           inkscape:connector-curvature="0"
           class="st8"
           d="m 1355.3,713.4 c 0,0 0,5.5 0,12.2 0,6.7 -32.8,12.2 -72.9,12.2 H 183.7 c -40.1,0 -72.9,-5.5 -72.9,-12.2 0,-6.7 0,-12.2 0,-12.2"
           id="path2466" />
      </g>
      <rect
         style="fill:#e6e6e6"
         x="110.8"
         y="694.79999"
         class="st17"
         width="1244.5"
         height="18.700001"
         id="rect2470" />
    </g>
    <g
       id="g2478"
       transform="matrix(0.1249765,0,0,0.1249765,72.28924,164.19478)">
      <path
         style="fill:#e6e6e6"
         inkscape:connector-curvature="0"
         class="st17"
         d="m 1203.4,620.9 c 0,2.6 -2.2,4.8 -4.8,4.8 H 268.1 c -2.6,0 -4.8,-2.2 -4.8,-4.8 V 64.4 c 0,-2.6 2.2,-4.8 4.8,-4.8 h 930.5 c 2.6,0 4.8,2.2 4.8,4.8 z"
         id="path2476" />
    </g>
    <rect
       style="fill:#ffffff;stroke-width:0.12497651"
       x="107.75757"
       y="177.10484"
       class="st14"
       width="112.47886"
       height="62.938168"
       id="rect2480" />
    <rect
       style="fill:#e81744;stroke-width:0.12497651"
       x="107.75757"
       y="177.10484"
       class="st3"
       width="112.47886"
       height="9.2482615"
       id="rect2482" />
    <text
       style="font-size:6.24882507px;font-family:Impact;fill:#ffffff;stroke-width:0.12497651"
       class="st14 st18 st19"
       id="text2484"
       x="109.57165"
       y="184.04756">FAKE NEWS</text>
    <g
       id="g2536"
       transform="matrix(0.1249765,0,0,0.1249765,72.28924,164.19478)">
      <text
         xml:space="preserve"
         style="font-style:normal;font-weight:normal;font-size:61.7100029px;line-height:1.25;font-family:sans-serif;letter-spacing:0px;word-spacing:0px;fill:#000000;fill-opacity:1;stroke:none;stroke-width:4.20750046"
         x="322.24695"
         y="240.54152"
         id="text4086"><tspan
           sodipodi:role="line"
           id="tspan4084"
           x="322.24695"
           y="240.54152"
           style="font-weight:bold;stroke-width:4.20750046">Měsíc není skutečný!</tspan></text>
    </g>
    <rect
       style="fill:#7f7f7f;stroke-width:0.13515076"
       x="109.78219"
       y="196.92613"
       class="st7"
       width="104.28037"
       height="1.8121593"
       id="rect2538" />
    <rect
       style="fill:#bfbfbf;stroke-width:0.15746132"
       x="152.04657"
       y="210.14864"
       class="st20"
       width="62.418133"
       height="2.0069816"
       id="rect2540" />
    <rect
       style="fill:#bfbfbf;stroke-width:0.15746132"
       x="152.04657"
       y="214.88853"
       class="st20"
       width="62.418133"
       height="2.0069816"
       id="rect2542" />
    <rect
       style="fill:#bfbfbf;stroke-width:0.15746132"
       x="152.04657"
       y="219.60709"
       class="st20"
       width="62.418133"
       height="2.0069816"
       id="rect2544" />
    <rect
       style="fill:#bfbfbf;stroke-width:0.15746132"
       x="152.04657"
       y="224.34698"
       class="st20"
       width="62.418133"
       height="2.0069816"
       id="rect2546" />
    <rect
       style="fill:#bfbfbf;stroke-width:0.15746132"
       x="152.04657"
       y="229.06552"
       class="st20"
       width="62.418133"
       height="2.0069816"
       id="rect2548" />
    <rect
       style="fill:#bfbfbf;stroke-width:0.15746132"
       x="152.04657"
       y="233.78407"
       class="st20"
       width="44.406868"
       height="2.0069816"
       id="rect2550" />
    <circle
       style="fill:#e81744;stroke-width:0.12497651"
       class="st3"
       cx="107.98254"
       cy="174.94276"
       r="0.88733321"
       id="circle2562" />
    <circle
       style="fill:#f7931e;stroke-width:0.12497651"
       class="st4"
       cx="110.76949"
       cy="174.94276"
       r="0.88733321"
       id="circle2564" />
    <circle
       style="fill:#3cc66d;stroke-width:0.12497651"
       class="st6"
       cx="113.55647"
       cy="174.94276"
       r="0.88733321"
       id="circle2566" />
    <g
       id="g4218"
       transform="matrix(0.07508745,0,0,0.07508745,108.65771,202.14841)">
      <polygon
         id="polygon4088"
         points="267.07,489.859 256,241.65 138.858,241.65 224.762,478.789 "
         style="fill:#f76720" />
      <polygon
         id="polygon4090"
         points="287.238,478.789 373.142,241.65 256,241.65 256,489.859 "
         style="fill:#f7ad3f" />
      <path
         id="path4092"
         d="M 338.365,105.859 306.475,137.4 256,74.724 c 31.581,0 60.412,11.762 82.365,31.135 z"
         style="fill:#a0dddf"
         inkscape:connector-curvature="0" />
      <path
         id="path4094"
         d="m 306.476,261.129 31.89,31.541 c -21.953,19.374 -50.784,31.135 -82.365,31.135 z"
         style="fill:#20aab0"
         inkscape:connector-curvature="0" />
      <path
         id="path4096"
         d="m 338.365,105.859 c 25.859,22.82 42.176,56.205 42.176,93.405 l -73.341,11.07 -0.724,-84.005 c 11.686,-5.188 22.427,-12.119 31.889,-20.47 z"
         style="fill:#71ccce"
         inkscape:connector-curvature="0" />
      <path
         id="path4098"
         d="m 307.2,199.265 h 73.341 c 0,37.201 -16.315,70.585 -42.176,93.405 -9.462,-8.35 -20.203,-15.281 -31.89,-20.471 z"
         style="fill:#41bbbe"
         inkscape:connector-curvature="0" />
      <path
         id="path4100"
         d="M 173.635,105.859 205.525,137.4 256,74.724 c -31.581,0 -60.412,11.762 -82.365,31.135 z"
         style="fill:#20aab0"
         inkscape:connector-curvature="0" />
      <path
         id="path4102"
         d="m 205.524,261.129 -31.89,31.541 c 21.953,19.374 50.784,31.135 82.365,31.135 z"
         style="fill:#06484a"
         inkscape:connector-curvature="0" />
      <path
         id="path4104"
         d="m 173.635,105.859 c -25.86,22.82 -42.176,56.205 -42.176,93.405 l 73.341,11.07 0.724,-84.005 c -11.686,-5.188 -22.427,-12.119 -31.889,-20.47 z"
         style="fill:#14858a"
         inkscape:connector-curvature="0" />
      <path
         id="path4106"
         d="m 204.8,199.265 h -73.341 c 0,37.201 16.315,70.585 42.176,93.405 9.462,-8.35 20.203,-15.281 31.89,-20.471 z"
         style="fill:#086063"
         inkscape:connector-curvature="0" />
      <path
         id="path4108"
         d="m 205.524,126.331 c -7.418,20.5 -11.794,45.694 -11.794,72.934 l 73.341,22.141 v -84.411 z"
         style="fill:#20aab0"
         inkscape:connector-curvature="0" />
      <path
         id="path4110"
         d="m 193.73,199.265 c 0,27.241 4.376,52.434 11.794,72.934 l 61.546,-10.664 v -62.27 z"
         style="fill:#14858a"
         inkscape:connector-curvature="0" />
      <path
         id="path4112"
         d="m 205.524,272.199 c 11.313,31.262 29.705,51.606 50.476,51.606 L 267.07,293.73 256,261.535 c -17.97,0 -35.047,3.813 -50.476,10.664 z"
         style="fill:#086063"
         inkscape:connector-curvature="0" />
      <g
         id="g4118">
        <path
           id="path4114"
           d="m 205.524,126.331 c 15.429,6.851 32.506,10.664 50.476,10.664 L 267.07,105.86 256,74.724 c -20.77,0 -39.162,20.344 -50.476,51.607 z"
           style="fill:#41bbbe"
           inkscape:connector-curvature="0" />
        <path
           id="path4116"
           d="M 306.476,126.331 256,136.995 v 62.27 l 31.135,11.07 31.135,-11.07 c 0,-27.241 -4.376,-52.434 -11.794,-72.934 z"
           style="fill:#41bbbe"
           inkscape:connector-curvature="0" />
      </g>
      <path
         id="path4120"
         d="m 256,199.265 v 62.27 l 50.476,10.664 c 7.418,-20.5 11.794,-45.694 11.794,-72.934 z"
         style="fill:#20aab0"
         inkscape:connector-curvature="0" />
      <path
         id="path4122"
         d="M 306.476,272.199 C 291.047,265.348 273.97,261.535 256,261.535 v 62.27 c 20.77,0 39.163,-20.343 50.476,-51.606 z"
         style="fill:#14858a"
         inkscape:connector-curvature="0" />
      <path
         id="path4124"
         d="m 256,136.995 c 17.97,0 35.047,-3.813 50.476,-10.664 C 295.162,95.068 276.77,74.724 256,74.724 Z"
         style="fill:#71ccce"
         inkscape:connector-curvature="0" />
      <g
         id="g4136">
        <path
           id="path4126"
           d="m 256,49.816 c -4.585,0 -8.303,-3.716 -8.303,-8.303 V 8.303 C 247.697,3.716 251.415,0 256,0 c 4.585,0 8.303,3.716 8.303,8.303 v 33.211 c 0,4.586 -3.718,8.302 -8.303,8.302 z"
           style="fill:#f7ad3f"
           inkscape:connector-curvature="0" />
        <path
           id="path4128"
           d="m 446.962,207.568 h -33.211 c -4.585,0 -8.303,-3.716 -8.303,-8.303 0,-4.586 3.717,-8.303 8.303,-8.303 h 33.211 c 4.585,0 8.303,3.716 8.303,8.303 0,4.586 -3.718,8.303 -8.303,8.303 z"
           style="fill:#f7ad3f"
           inkscape:connector-curvature="0" />
        <path
           id="path4130"
           d="M 98.249,207.568 H 65.038 c -4.585,0 -8.303,-3.716 -8.303,-8.303 0,-4.586 3.717,-8.303 8.303,-8.303 h 33.211 c 4.585,0 8.303,3.716 8.303,8.303 -0.001,4.586 -3.718,8.303 -8.303,8.303 z"
           style="fill:#f7ad3f"
           inkscape:connector-curvature="0" />
        <path
           id="path4132"
           d="m 367.547,96.02 c -2.124,0 -4.25,-0.81 -5.871,-2.431 -3.242,-3.244 -3.242,-8.5 0,-11.742 l 23.483,-23.483 c 3.242,-3.241 8.5,-3.241 11.741,0 3.242,3.244 3.242,8.5 0,11.742 l -23.483,23.483 c -1.62,1.621 -3.745,2.431 -5.87,2.431 z"
           style="fill:#f7ad3f"
           inkscape:connector-curvature="0" />
        <path
           id="path4134"
           d="m 144.453,96.02 c -2.124,0 -4.25,-0.81 -5.871,-2.431 L 115.099,70.106 c -3.242,-3.244 -3.242,-8.5 0,-11.742 3.242,-3.241 8.5,-3.241 11.741,0 l 23.483,23.483 c 3.242,3.244 3.242,8.5 0,11.742 -1.62,1.621 -3.745,2.431 -5.87,2.431 z"
           style="fill:#f7ad3f"
           inkscape:connector-curvature="0" />
      </g>
      <path
         id="path4138"
         d="m 4.151,478.789 v 11.07 c 0,12.177 9.963,22.141 22.141,22.141 h 459.416 c 12.177,0 22.141,-9.963 22.141,-22.141 v -11.07 z"
         style="fill:#41bbbe"
         inkscape:connector-curvature="0" />
      <g
         id="g4140" />
      <g
         id="g4142" />
      <g
         id="g4144" />
      <g
         id="g4146" />
      <g
         id="g4148" />
      <g
         id="g4150" />
      <g
         id="g4152" />
      <g
         id="g4154" />
      <g
         id="g4156" />
      <g
         id="g4158" />
      <g
         id="g4160" />
      <g
         id="g4162" />
      <g
         id="g4164" />
      <g
         id="g4166" />
      <g
         id="g4168" />
    </g>
    <rect
       style="fill:#7f7f7f;stroke-width:0.13496931"
       x="109.78219"
       y="200.93785"
       class="st7"
       width="104.00057"
       height="1.8121593"
       id="rect2558" />
    <g
       id="g4322"
       transform="matrix(-0.22459444,-4.1816283,4.1816283,-0.22459444,-497.74647,479.81604)">
      <g
         transform="matrix(0.02984403,0,0,0.02984403,47.377668,159.77474)"
         id="g2664">
        <defs
           id="defs2643">
          <rect
             id="rect2899"
             x="222.60001"
             y="11.4"
             width="388.39999"
             height="483.89999" />
        </defs>
        <clipPath
           id="SVGID_2_">
          <use
             height="100%"
             width="100%"
             y="0"
             x="0"
             xlink:href="#SVGID_1_"
             style="overflow:visible"
             id="use2645" />
        </clipPath>
        <g
           style="opacity:0.2"
           class="st31"
           clip-path="url(#SVGID_2_)"
           id="g2662">
          <rect
             x="200.7"
             y="354"
             transform="matrix(0.7071,-0.7071,0.7071,0.7071,-180.4257,292.1801)"
             width="123.6"
             height="19.799999"
             id="rect2648" />
          <g
             id="g2654">
            <path
               inkscape:connector-curvature="0"
               d="m 420.3,371.5 c -91.2,0 -165.5,-74.2 -165.5,-165.5 0,-91.3 74.3,-165.4 165.5,-165.4 91.2,0 165.5,74.2 165.5,165.4 0,91.2 -74.2,165.5 -165.5,165.5 z"
               id="path2650" />
            <path
               inkscape:connector-curvature="0"
               d="m 420.3,58.6 c 39.4,0 76.4,15.3 104.3,43.2 27.9,27.9 43.2,64.9 43.2,104.3 0,39.4 -15.3,76.4 -43.2,104.3 -27.9,27.9 -64.9,43.2 -104.3,43.2 -39.4,0 -76.4,-15.3 -104.3,-43.2 -27.9,-27.9 -43.2,-64.9 -43.2,-104.3 0,-39.4 15.3,-76.4 43.2,-104.3 27.9,-27.9 64.9,-43.2 104.3,-43.2 m 0,-36 C 319,22.6 236.8,104.7 236.8,206 c 0,101.3 82.2,183.5 183.5,183.5 101.3,0 183.5,-82.1 183.5,-183.5 0,-101.4 -82.2,-183.4 -183.5,-183.4 z"
               id="path2652" />
          </g>
          <path
             inkscape:connector-curvature="0"
             d="m 346.7,142.3 c -2.5,0 -5.1,-1 -7,-2.9 -3.9,-3.9 -3.9,-10.2 0,-14 21.5,-21.5 50.2,-33.4 80.6,-33.4 30.4,0 59.1,11.9 80.6,33.4 3.9,3.9 3.9,10.2 0,14 -3.9,3.9 -10.2,3.9 -14,0 -17.8,-17.8 -41.4,-27.6 -66.6,-27.6 -25.2,0 -48.8,9.8 -66.6,27.6 -1.9,2 -4.5,2.9 -7,2.9 z"
             id="path2656" />
          <path
             inkscape:connector-curvature="0"
             d="m 227.6,456.5 -153,153 C 58.7,625.4 42.1,616.1 26.2,600.2 10.3,584.3 0.9,567.7 16.9,551.8 l 153,-153 47.6,10.2 z"
             id="path2658" />
          <path
             inkscape:connector-curvature="0"
             d="m 246.2,437.9 -18.6,18.6 -57.7,-57.7 18.6,-18.6 c 15.9,-15.9 41.8,-15.9 57.7,0 15.9,15.9 15.9,41.7 0,57.7 z"
             id="path2660" />
        </g>
      </g>
      <rect
         id="rect2666"
         height="0.59090602"
         width="3.6886861"
         class="st32"
         transform="rotate(-45)"
         y="159.04311"
         x="-83.460335"
         style="fill:#ece7ea;stroke-width:0.02984374" />
      <path
         id="path2674"
         d="m 53.913511,173.14487 -4.566137,4.56613 c -0.47452,0.47452 -0.969931,0.19697 -1.444451,-0.27755 -0.47452,-0.47452 -0.755054,-0.96993 -0.27755,-1.44445 l 4.566137,-4.56614 1.420576,0.30441 z"
         class="st2"
         inkscape:connector-curvature="0"
         style="fill:#334d5c;stroke-width:0.02984403" />
      <path
         id="path2676"
         d="m 54.471594,172.58977 -0.558083,0.5551 -1.722001,-1.72201 0.555099,-0.55509 c 0.47452,-0.47452 1.24748,-0.47452 1.722001,0 0.477504,0.47452 0.477504,1.24449 0.003,1.722 z"
         class="st33"
         inkscape:connector-curvature="0"
         style="fill:#c2b8b9;stroke-width:0.02984403" />
      <g
         transform="matrix(0.02984403,0,0,0.02984403,47.377668,159.77474)"
         id="g2783">
        <path
           style="fill:#334d5c"
           inkscape:connector-curvature="0"
           class="st2"
           d="m 411.8,50 c 39.4,0 76.4,15.3 104.3,43.2 27.9,27.9 43.2,64.9 43.2,104.3 0,39.4 -15.3,76.4 -43.2,104.3 -27.9,27.9 -64.9,43.2 -104.3,43.2 -39.4,0 -76.4,-15.3 -104.3,-43.2 -27.9,-27.9 -43.2,-64.9 -43.2,-104.3 0,-39.4 15.3,-76.4 43.2,-104.3 C 335.4,65.4 372.4,50 411.8,50 m 0,-36 C 310.5,14 228.3,96.1 228.3,197.5 228.3,298.9 310.5,381 411.8,381 513.1,381 595.3,298.9 595.3,197.5 595.3,96.1 513.1,14 411.8,14 Z"
           id="path2781" />
      </g>
      <path
         style="opacity:0.6;fill:#ffffff;stroke-width:0.02984403"
         inkscape:connector-curvature="0"
         class="st35"
         d="m 57.470919,163.76787 c -0.07461,0 -0.152205,-0.0298 -0.208908,-0.0865 -0.116392,-0.11639 -0.116392,-0.30441 0,-0.41781 0.641646,-0.64165 1.49817,-0.99679 2.405429,-0.99679 0.907258,0 1.763782,0.35514 2.405428,0.99679 0.116392,0.11639 0.116392,0.30441 0,0.41781 -0.116391,0.1164 -0.304409,0.1164 -0.417816,0 -0.531224,-0.53122 -1.235543,-0.82369 -1.987612,-0.82369 -0.75207,0 -1.456389,0.29247 -1.987613,0.82369 -0.0567,0.0597 -0.134298,0.0865 -0.208908,0.0865 z"
         id="path2785" />
    </g>
    <text
       xml:space="preserve"
       style="font-style:normal;font-weight:normal;font-size:10.300354px;line-height:1.25;font-family:sans-serif;letter-spacing:0px;word-spacing:0px;fill:#ffffff;fill-opacity:1;stroke:none;stroke-width:0.70229685"
       x="116.94164"
       y="143.28844"
       id="text4792"><tspan
         sodipodi:role="line"
         x="116.94164"
         y="143.28844"
         style="font-style:normal;font-variant:normal;font-weight:normal;font-stretch:normal;font-family:'Bitstream Vera Serif';-inkscape-font-specification:'Bitstream Vera Serif';fill:#ffffff;stroke-width:0.70229685"
         id="tspan4815">Tato stránka může</tspan><tspan
         sodipodi:role="line"
         x="116.94164"
         y="156.16388"
         style="font-style:normal;font-variant:normal;font-weight:normal;font-stretch:normal;font-family:'Bitstream Vera Serif';-inkscape-font-specification:'Bitstream Vera Serif';fill:#ffffff;stroke-width:0.70229685"
         id="tspan2937">šířit dezinformace</tspan></text>
  </g>
  <style
     id="style2447"
     type="text/css">
	.st0{fill:#0099DB;}
	.st1{fill:#0F7296;}
	.st2{fill:#334D5C;}
	.st3{fill:#E81744;}
	.st4{fill:#F7931E;}
	.st5{fill:#D87A1D;}
	.st6{fill:#3CC66D;}
	.st7{fill:#7F7F7F;}
	.st8{fill:#D3D3D3;}
	.st9{fill:#F8C963;}
	.st10{fill:#D30E95;}
	.st11{fill:#EBEEF7;}
	.st12{fill:#4767AA;}
	.st13{fill:#6F92CC;}
	.st14{fill:#FFFFFF;}
	.st15{fill:#121212;}
	.st16{fill:#2D2D2D;}
	.st17{fill:#E6E6E6;}
	.st18{font-family:'Impact';}
	.st19{font-size:50px;}
	.st20{fill:#BFBFBF;}
	.st21{fill:#C3B59B;}
	.st22{fill:#736558;}
	.st23{fill:#9C8478;}
	.st24{fill:#212121;}
	.st25{fill:#3BCE05;}
	.st26{fill:#C39F94;}
	.st27{fill:#87AEB1;}
	.st28{fill:#668687;}
	.st29{fill:#CCB3A6;}
	.st30{fill:#897D6D;}
	.st31{opacity:0.2;clip-path:url(#SVGID_2_);}
	.st32{fill:#ECE7EA;}
	.st33{fill:#C2B8B9;}
	.st34{clip-path:url(#SVGID_6_);}
	.st35{opacity:0.6;fill:#FFFFFF;}
</style>
</svg>
