<?xml version="1.0" encoding="UTF-8" standalone="no"?>
<!-- Generator: Adobe Illustrator 19.0.0, SVG Export Plug-In . SVG Version: 6.00 Build 0)  -->

<svg
   xmlns:dc="http://purl.org/dc/elements/1.1/"
   xmlns:cc="http://creativecommons.org/ns#"
   xmlns:rdf="http://www.w3.org/1999/02/22-rdf-syntax-ns#"
   xmlns:svg="http://www.w3.org/2000/svg"
   xmlns="http://www.w3.org/2000/svg"
   xmlns:sodipodi="http://sodipodi.sourceforge.net/DTD/sodipodi-0.dtd"
   xmlns:inkscape="http://www.inkscape.org/namespaces/inkscape"
   version="1.1"
   id="Layer_1"
   x="0px"
   y="0px"
   viewBox="0 0 128 128"
   xml:space="preserve"
   sodipodi:docname="icon128.svg"
   width="128"
   height="128"
   inkscape:version="0.92.3 (d244b95, 2018-08-02)"
   inkscape:export-filename="/home/radoslav/Work/PutinPropagandaChrome/graphics/v2/icon16.png"
   inkscape:export-xdpi="12"
   inkscape:export-ydpi="12"><metadata
   id="metadata7711"><rdf:RDF><cc:Work
       rdf:about=""><dc:format>image/svg+xml</dc:format><dc:type
         rdf:resource="http://purl.org/dc/dcmitype/StillImage" /><dc:title></dc:title></cc:Work></rdf:RDF></metadata><defs
   id="defs7709" /><sodipodi:namedview
   pagecolor="#ffffff"
   bordercolor="#666666"
   borderopacity="1"
   objecttolerance="10"
   gridtolerance="10"
   guidetolerance="10"
   inkscape:pageopacity="0"
   inkscape:pageshadow="2"
   inkscape:window-width="1246"
   inkscape:window-height="1018"
   id="namedview7707"
   showgrid="false"
   inkscape:zoom="2.6074563"
   inkscape:cx="65.632597"
   inkscape:cy="47.71365"
   inkscape:window-x="1240"
   inkscape:window-y="45"
   inkscape:window-maximized="0"
   inkscape:current-layer="Layer_1" />


















<g
   id="g8391"
   transform="matrix(1.1613783,0,0,1.1613783,-10.32821,-21.176065)"><polygon
     transform="scale(0.25)"
     id="polygon7624"
     points="267.07,489.859 256,241.65 138.858,241.65 224.762,478.789 "
     style="fill:#f76720" /><polygon
     transform="scale(0.25)"
     id="polygon7626"
     points="287.238,478.789 373.142,241.65 256,241.65 256,489.859 "
     style="fill:#f7ad3f" /><path
     inkscape:connector-curvature="0"
     id="path7628"
     d="M 84.59125,26.46475 76.61875,34.35 64,18.681 c 7.89525,0 15.103,2.9405 20.59125,7.78375 z"
     style="fill:#a0dddf;stroke-width:0.25" /><path
     inkscape:connector-curvature="0"
     id="path7630"
     d="m 76.619,65.28225 7.9725,7.88525 c -5.48825,4.8435 -12.696,7.78375 -20.59125,7.78375 z"
     style="fill:#20aab0;stroke-width:0.25" /><path
     inkscape:connector-curvature="0"
     id="path7632"
     d="m 84.59125,26.46475 c 6.46475,5.705 10.544,14.05125 10.544,23.35125 L 76.8,52.5835 76.619,31.58225 c 2.9215,-1.297 5.60675,-3.02975 7.97225,-5.1175 z"
     style="fill:#71ccce;stroke-width:0.25" /><path
     inkscape:connector-curvature="0"
     id="path7634"
     d="m 76.8,49.81625 h 18.33525 c 0,9.30025 -4.07875,17.64625 -10.544,23.35125 -2.3655,-2.0875 -5.05075,-3.82025 -7.9725,-5.11775 z"
     style="fill:#41bbbe;stroke-width:0.25" /><path
     inkscape:connector-curvature="0"
     id="path7636"
     d="M 43.40875,26.46475 51.38125,34.35 64,18.681 c -7.89525,0 -15.103,2.9405 -20.59125,7.78375 z"
     style="fill:#20aab0;stroke-width:0.25" /><path
     inkscape:connector-curvature="0"
     id="path7638"
     d="m 51.381,65.28225 -7.9725,7.88525 c 5.48825,4.8435 12.696,7.78375 20.59125,7.78375 z"
     style="fill:#06484a;stroke-width:0.25" /><path
     inkscape:connector-curvature="0"
     id="path7640"
     d="m 43.40875,26.46475 c -6.465,5.705 -10.544,14.05125 -10.544,23.35125 L 51.2,52.5835 51.381,31.58225 c -2.9215,-1.297 -5.60675,-3.02975 -7.97225,-5.1175 z"
     style="fill:#14858a;stroke-width:0.25" /><path
     inkscape:connector-curvature="0"
     id="path7642"
     d="M 51.2,49.81625 H 32.86475 c 0,9.30025 4.07875,17.64625 10.544,23.35125 2.3655,-2.0875 5.05075,-3.82025 7.9725,-5.11775 z"
     style="fill:#086063;stroke-width:0.25" /><path
     inkscape:connector-curvature="0"
     id="path7644"
     d="m 51.381,31.58275 c -1.8545,5.125 -2.9485,11.4235 -2.9485,18.2335 L 66.76775,55.3515 V 34.24875 Z"
     style="fill:#20aab0;stroke-width:0.25" /><path
     inkscape:connector-curvature="0"
     id="path7646"
     d="m 48.4325,49.81625 c 0,6.81025 1.094,13.1085 2.9485,18.2335 l 15.3865,-2.666 v -15.5675 z"
     style="fill:#14858a;stroke-width:0.25" /><path
     inkscape:connector-curvature="0"
     id="path7648"
     d="m 51.381,68.04975 c 2.82825,7.8155 7.42625,12.9015 12.619,12.9015 L 66.7675,73.4325 64,65.38375 c -4.4925,0 -8.76175,0.95325 -12.619,2.666 z"
     style="fill:#086063;stroke-width:0.25" /><g
     transform="scale(0.25)"
     id="g7654">
	<path
   inkscape:connector-curvature="0"
   id="path7650"
   d="m 205.524,126.331 c 15.429,6.851 32.506,10.664 50.476,10.664 L 267.07,105.86 256,74.724 c -20.77,0 -39.162,20.344 -50.476,51.607 z"
   style="fill:#41bbbe" />
	<path
   inkscape:connector-curvature="0"
   id="path7652"
   d="M 306.476,126.331 256,136.995 v 62.27 l 31.135,11.07 31.135,-11.07 c 0,-27.241 -4.376,-52.434 -11.794,-72.934 z"
   style="fill:#41bbbe" />
</g><path
     inkscape:connector-curvature="0"
     id="path7656"
     d="m 64,49.81625 v 15.5675 l 12.619,2.666 c 1.8545,-5.125 2.9485,-11.4235 2.9485,-18.2335 z"
     style="fill:#20aab0;stroke-width:0.25" /><path
     inkscape:connector-curvature="0"
     id="path7658"
     d="M 76.619,68.04975 C 72.76175,66.337 68.4925,65.38375 64,65.38375 v 15.5675 c 5.1925,0 9.79075,-5.08575 12.619,-12.9015 z"
     style="fill:#14858a;stroke-width:0.25" /><path
     inkscape:connector-curvature="0"
     id="path7660"
     d="m 64,34.24875 c 4.4925,0 8.76175,-0.95325 12.619,-2.666 C 73.7905,23.767 69.1925,18.681 64,18.681 Z"
     style="fill:#71ccce;stroke-width:0.25" /><path
     inkscape:connector-curvature="0"
     id="path7674"
     d="m 14.077278,119.69725 v 2.7675 c 0,3.04425 1.974914,5.53525 4.388896,5.53525 h 91.067656 c 2.41378,0 4.38889,-2.49075 4.38889,-5.53525 v -2.7675 z"
     style="fill:#41bbbe;stroke-width:0.22261223" /></g>
<g
   id="g7676"
   transform="translate(0,-384)">
</g>
<g
   id="g7678"
   transform="translate(0,-384)">
</g>
<g
   id="g7680"
   transform="translate(0,-384)">
</g>
<g
   id="g7682"
   transform="translate(0,-384)">
</g>
<g
   id="g7684"
   transform="translate(0,-384)">
</g>
<g
   id="g7686"
   transform="translate(0,-384)">
</g>
<g
   id="g7688"
   transform="translate(0,-384)">
</g>
<g
   id="g7690"
   transform="translate(0,-384)">
</g>
<g
   id="g7692"
   transform="translate(0,-384)">
</g>
<g
   id="g7694"
   transform="translate(0,-384)">
</g>
<g
   id="g7696"
   transform="translate(0,-384)">
</g>
<g
   id="g7698"
   transform="translate(0,-384)">
</g>
<g
   id="g7700"
   transform="translate(0,-384)">
</g>
<g
   id="g7702"
   transform="translate(0,-384)">
</g>
<g
   id="g7704"
   transform="translate(0,-384)">
</g>
</svg>